<svg xmlns="http://www.w3.org/2000/svg" width="162" height="143" fill="none"><path fill="#E7E7F0" d="M89.044 9.278S75.653 39.336 40.236 32.45C4.82 25.564-16.518 74.01 16.965 91.673s10.278 37.955 32.61 48.32c25.38 11.78 34.844-27.611 53.542-23.952 41.268 8.074 66.794-5.774 55.507-24.41-19.813-32.712-34.2-31.508-28.354-52.633 5.847-21.125-27.17-53.555-41.226-29.72Z"/><path fill="#1B1B1E" d="M82.58 77.882c-3.112 5.963-3.897 9.133-13.337 15.05a.387.387 0 0 0-.155.203 32.358 32.358 0 0 1-7.465 12.488.362.362 0 0 0-.087.363c1.057 3.516 2.2 9.855-.981 15.051-4.677 7.65-8.14 3.031-7.42 1.299.619-1.483 5.896-4.67 4.677-12.632a.38.38 0 0 0-.229-.288.38.38 0 0 0-.365.046 32.148 32.148 0 0 1-12.858 5.56.36.36 0 0 0-.144.057.358.358 0 0 0-.161.256.373.373 0 0 0 .01.155c1.184 4.237 1.745 10.86-3.197 16.95-2.639 3.175-6.138-1.466-2.639-4.63 2.17-1.957 2.003-7.586.987-11.922a.37.37 0 0 0-.375-.288c-.202.005-.41.005-.612.005a32.249 32.249 0 0 1-19.739-6.709.377.377 0 0 0-.527.06.378.378 0 0 0-.08.177c-1.356 8.96 4.03 12.06 4.798 14.358.855 2.569-1.108 4.855-3.527 4.209a.437.437 0 0 1-.144-.075c-7.887-5.924-7.2-18.336-6.334-24.312a.342.342 0 0 0-.075-.277 32.244 32.244 0 0 1-6.784-19.849c0-13.18 7.87-24.525 19.168-29.588a.006.006 0 0 0 .004-.002l.001-.002v-.002c1.739-2.2 3.857-5.311 4.18-7.494a.376.376 0 0 1 .676-.167c.832 1.12 2.12 3.256 1.836 5.508-.011.075-.017.15-.029.225-.023.127-.052.248-.08.375-.03.098-.053.196-.087.295.404-.337.789-.696 1.154-1.074.849-.872 1.922-2.183 2.384-3.586a.378.378 0 0 1 .71-.04c.3.74.653 1.773.774 2.83a.383.383 0 0 0 .387.34 34.3 34.3 0 0 1 1.333-.029c17.904 0 32.418 14.514 32.418 32.412 0 .41-.006.814-.023 1.218a.38.38 0 0 0 .502.375c1.928-.675 4.359-2.303 5.825-6.177 2.743-7.217 3.031-9.238 2.165-14.867-.866-5.629 3.32-5.34 4.186-3.464.866 1.876 2.743 10.97-.721 17.609Z"/><path fill="#fff" d="M25.567 86.03a.5.5 0 0 1-.483-.372 8.223 8.223 0 0 1-.138-2.9c.284-2.102 1.428-3.647 3.309-4.469 1.228-.536 2.39-.567 3.451-.091 2.177.975 3.103 3.74 3.142 3.858a.5.5 0 0 1-.95.311c-.008-.024-.832-2.467-2.604-3.258-.793-.355-1.68-.322-2.639.097-1.556.68-2.469 1.91-2.713 3.656a7.326 7.326 0 0 0 .11 2.543.5.5 0 0 1-.485.626ZM40.64 81.452a.5.5 0 0 1-.474-.341 8.148 8.148 0 0 1-.326-2.874c.148-2.107 1.19-3.717 3.012-4.655 1.194-.614 2.353-.72 3.445-.313 2.23.83 3.332 3.512 3.378 3.626a.5.5 0 0 1-.928.373c-.01-.023-.988-2.39-2.803-3.063-.816-.303-1.702-.213-2.634.266-1.508.776-2.339 2.056-2.47 3.806-.056.849.037 1.7.275 2.517a.5.5 0 0 1-.475.658ZM39.368 91.913c-3.404 0-5.998-2.265-6.128-2.38a.5.5 0 0 1 .664-.748c.034.03 3.46 3.008 7.318 1.858 3.84-1.144 4.894-6.02 4.904-6.069a.5.5 0 0 1 .98.202 11.579 11.579 0 0 1-1.108 2.894c-1.098 2.024-2.65 3.383-4.49 3.932a7.463 7.463 0 0 1-2.14.31Z"/><path fill="#699CFF" fill-rule="evenodd" d="M110.836 33.913c-1.327-.732-2.918.283-2.868 1.798l.281 8.52a27.108 27.108 0 0 0-12.3 12.166c-2.206-2.327-6.182-7.668-5.934-14.127.242-4.447-2.07-5.802-4.187-4.194-2.097 1.587-2.735 15.91 8.201 23.336a28.36 28.36 0 0 0-.597 2.757c-2.41 14.746 7.59 28.648 22.33 31.058 14.746 2.41 28.647-7.584 31.057-22.33.178-1.072.288-2.154.331-3.24 11.481-5.745 14.272-14.234 14.369-17.722a2.74 2.74 0 0 0-1.102-2.275c-1.549-1.154-2.748-.402-3.426.306-.361.39-.569.9-.585 1.431-.022.57-.142 1.516-.575 2.802-3.096 6.455-6.919 8.726-9.084 9.513a27.033 27.033 0 0 0-4.069-10.11l4.615-7.32c.809-1.284-.051-2.963-1.567-3-4.744-.12-8.599.282-12.707 1.465a26.999 26.999 0 0 0-8.53-2.908 27.27 27.27 0 0 0-3.524-.344c-2.919-3.045-6.02-5.313-10.129-7.582Z" clip-rule="evenodd"/><path fill="url(#a)" fill-rule="evenodd" d="M110.836 33.913c-1.327-.732-2.918.283-2.868 1.798l.281 8.52a27.108 27.108 0 0 0-12.3 12.166c-2.206-2.327-6.182-7.668-5.934-14.127.242-4.447-2.07-5.802-4.187-4.194-2.097 1.587-2.735 15.91 8.201 23.336a28.36 28.36 0 0 0-.597 2.757c-2.41 14.746 7.59 28.648 22.33 31.058 14.746 2.41 28.647-7.584 31.057-22.33.178-1.072.288-2.154.331-3.24 11.481-5.745 14.272-14.234 14.369-17.722a2.74 2.74 0 0 0-1.102-2.275c-1.549-1.154-2.748-.402-3.426.306-.361.39-.569.9-.585 1.431-.022.57-.142 1.516-.575 2.802-3.096 6.455-6.919 8.726-9.084 9.513a27.033 27.033 0 0 0-4.069-10.11l4.615-7.32c.809-1.284-.051-2.963-1.567-3-4.744-.12-8.599.282-12.707 1.465a26.999 26.999 0 0 0-8.53-2.908 27.27 27.27 0 0 0-3.524-.344c-2.919-3.045-6.02-5.313-10.129-7.582Z" clip-rule="evenodd"/><path fill="#fff" d="M131.064 74.44c-.683 4.177-6.427 6.713-12.825 5.667-6.405-1.047-11.042-5.28-10.359-9.457a5.24 5.24 0 0 1 .889-2.16.836.836 0 0 1 1.13-.22c2.292 1.436 5.921 2.701 10.107 3.386 3.853.63 7.419.64 10.014.147a.838.838 0 0 1 .972.625c.156.66.18 1.343.072 2.012ZM118.922 66.153a.503.503 0 0 1-.482-.365.487.487 0 0 1-.012-.215 3.923 3.923 0 1 0-7.742-1.266.498.498 0 0 1-.574.413.498.498 0 0 1-.413-.574 4.925 4.925 0 0 1 8.855-2.08 4.92 4.92 0 0 1 .861 3.668.5.5 0 0 1-.493.42ZM130.916 68.114a.496.496 0 0 1-.381-.176.502.502 0 0 1-.113-.404 3.922 3.922 0 0 0-7.742-1.266.485.485 0 0 1-.068.183.49.49 0 0 1-.506.231.5.5 0 0 1-.412-.576 4.922 4.922 0 0 1 9.715 1.589.5.5 0 0 1-.493.419Z"/><defs><linearGradient id="a" x1="124.096" x2="124.096" y1="45.617" y2="97.49" gradientUnits="userSpaceOnUse"><stop/><stop offset="1"/></linearGradient></defs></svg>