<svg xmlns="http://www.w3.org/2000/svg" version="1.1" width="512" height="512" x="0" y="0" viewBox="0 0 6.35 6.35" style="enable-background:new 0 0 512 512"><g><path d="M1.582.262a.265.265 0 0 0-.182.08L.342 1.402a.265.265 0 0 0 0 .373L1.4 2.833a.265.265 0 0 0 .375-.375l-.605-.605h4.123v.81a.265.265 0 1 0 .527 0v-.81a.533.533 0 0 0-.527-.53H1.167l.608-.607a.265.265 0 0 0-.193-.454zm3.177 3.174a.265.265 0 0 0-.183.455l.607.608H1.058v-.787a.265.265 0 0 0-.267-.268.265.265 0 0 0-.262.268v.787c0 .288.24.527.53.527h4.124l-.607.608a.265.265 0 1 0 .373.374L6.007 4.95a.265.265 0 0 0 0-.375L4.95 3.517a.265.265 0 0 0-.19-.08z"></path></g></svg>
